<?xml version="1.0" encoding="UTF-8" standalone="no"?>
<!-- Created with Inkscape (http://www.inkscape.org/) -->

<svg
   xmlns:dc="http://purl.org/dc/elements/1.1/"
   xmlns:cc="http://creativecommons.org/ns#"
   xmlns:rdf="http://www.w3.org/1999/02/22-rdf-syntax-ns#"
   xmlns:svg="http://www.w3.org/2000/svg"
   xmlns="http://www.w3.org/2000/svg"
   xmlns:sodipodi="http://sodipodi.sourceforge.net/DTD/sodipodi-0.dtd"
   xmlns:inkscape="http://www.inkscape.org/namespaces/inkscape"
   width="210mm"
   height="297mm"
   id="svg2"
   version="1.1"
   inkscape:version="0.48.1 r9760"
   sodipodi:docname="logo-1.svg">
  <defs
     id="defs4" />
  <sodipodi:namedview
     id="base"
     pagecolor="#ffffff"
     bordercolor="#666666"
     borderopacity="1.0"
     inkscape:pageopacity="0.0"
     inkscape:pageshadow="2"
     inkscape:zoom="1.4"
     inkscape:cx="168.57747"
     inkscape:cy="915.0504"
     inkscape:document-units="px"
     inkscape:current-layer="layer2"
     showgrid="false"
     inkscape:window-width="1366"
     inkscape:window-height="707"
     inkscape:window-x="-4"
     inkscape:window-y="-3"
     inkscape:window-maximized="1" />
  <metadata
     id="metadata7">
    <rdf:RDF>
      <cc:Work
         rdf:about="">
        <dc:format>image/svg+xml</dc:format>
        <dc:type
           rdf:resource="http://purl.org/dc/dcmitype/StillImage" />
        <dc:title></dc:title>
      </cc:Work>
    </rdf:RDF>
  </metadata>
  <g
     inkscape:label="Capa 1"
     inkscape:groupmode="layer"
     id="layer1"
     sodipodi:insensitive="true"
     style="display:none">
    <path
       style="fill:none;stroke:#000000;stroke-width:1px;stroke-linecap:butt;stroke-linejoin:miter;stroke-opacity:1"
       d="m 380.71429,108.79075 c -3.93996,-23.232742 -13.93246,-42.995583 -52.85715,-46.428568 -41.95354,9.302247 -48.45995,26.944996 -59.28571,43.571428 -7.63547,48.45425 4.30625,81.78067 38.57143,97.85714 38.02161,14.00009 106.4351,-10.20066 77.14285,-52.14286"
       id="path2985"
       inkscape:connector-curvature="0"
       sodipodi:nodetypes="ccccc" />
  </g>
  <g
     inkscape:groupmode="layer"
     id="layer2"
     inkscape:label="Capa"
     style="display:inline">
    <path
       style="fill:#323232;fill-opacity:1;stroke:none"
       d="m 240.71875,74.5 c -31.52948,0 -58.43716,16.457745 -68.90625,39.59375 4.87275,-2.33197 10.01087,-4.34171 15.25,-5.9375 C 202.08025,103.83767 226.38751,98.958697 253.5625,95 268.14551,92.926012 278.80778,91.999551 292,91.8125 278.74832,81.115024 260.66348,74.5 240.71875,74.5 z m 25.71875,24.84375 c -30.75065,0 -63.65527,14.93384 -75.8125,34.1875 76.51905,-12.41591 95.84375,-17.81546 95.84375,-26.8125 0,-4.31858 -7.87402,-7.375 -20.03125,-7.375 z m 44.53125,18.0625 c -7.23292,1.88783 -16.02558,3.81282 -26.65625,5.84375 -42.19275,7.9174 -63.63159,11.71166 -95.8125,16.75 0,5.21828 0.70197,7.18345 3.5625,10.0625 5.00592,4.67846 20.02797,7.75 37.90625,7.75 21.27402,0 46.97144,-3.10993 82.84375,-10.0625 0.9601,-3.93684 1.46875,-8.0156 1.46875,-12.1875 0,-6.32415 -1.16289,-12.41927 -3.3125,-18.15625 z m -0.1875,36.8125 c -43.2547,9.07649 -83.06564,13.84375 -116.5625,13.84375 -5.77597,0 -11.16021,-0.17676 -16.1875,-0.5 12.95099,17.45029 36.18442,29.09375 62.6875,29.09375 32.803,0 60.57127,-17.82284 70.0625,-42.4375 z"
       id="path3806"
       inkscape:connector-curvature="0" />
  </g>
</svg>
